# xmcd
#
# Track frame offsets:
#	150
#	14272
#	26702
#	37865
#	50015
#	63647
#	74027
#	86660
#	97762
#	117422
#	129067
#	139085
#	153607
#	169547
#	181857
#	199325
#	212252
#	224902
#
# Disc length: 3383 seconds
#
# Revision: 1
# Processed by: cddbd v1.5PL3 Copyright (c) Steve Scherf et al.
# Submitted via: dBpowerAMP V4.0
#
DISCID=030d3512
DTITLE=Koko Taylor - What it Takes (The Chess Years)
DYEAR=1900
DGENRE=Blues
TTITLE0=I Got What it Takes
TTITLE1=Don´t Mess With The Messer
TTITLE2=Whatever I Am, You Made Me
TTITLE3=I´m a Little Mixed Up
TTITLE4=Wang Dang Doodle
TTITLE5=(I Got) All You Need
TTITLE6=Love Me
TTITLE7=What Came First The Egg or The Hen
TTITLE8=Insane Asylum
TTITLE9=Fire
TTITLE10=I Don´t Care Who Knows
TTITLE11=Twenty Nine Ways (To My Baby´s Door)
TTITLE12=Blue Prelude
TTITLE13=I Need More And More
TTITLE14=Um Huh my Baby
TTITLE15=Bills, Bills and More Bills
TTITLE16=Let Me Love You Baby
TTITLE17=I Got What it Takes (Live Duet With Muddy Waters)
EXTD=
EXTT0=
EXTT1=
EXTT2=
EXTT3=
EXTT4=
EXTT5=
EXTT6=
EXTT7=
EXTT8=
EXTT9=
EXTT10=
EXTT11=
EXTT12=
EXTT13=
EXTT14=
EXTT15=
EXTT16=
EXTT17=
PLAYORDER=
